<svg xmlns="http://www.w3.org/2000/svg" width="20" height="20" viewBox="0 0 20 20" fill="none"><mask id="path-1-inside-1_124" fill="white"><path fill-rule="evenodd" clip-rule="evenodd" d="M2.49935 3.3335C2.03911 3.3335 1.66602 3.70659 1.66602 4.16683V15.0002C1.66602 15.4604 2.03911 15.8335 2.49935 15.8335H5.83272V18.5835C5.83272 18.9955 6.3031 19.2307 6.63272 18.9835L10.8327 15.8335H17.4993C17.9596 15.8335 18.3327 15.4604 18.3327 15.0002V4.16683C18.3327 3.70659 17.9596 3.3335 17.4994 3.3335H2.49935Z"></path></mask><path d="M5.83272 15.8335H7.33272V14.3335H5.83272V15.8335ZM6.63272 18.9835L7.53272 20.1835H7.53272L6.63272 18.9835ZM10.8327 15.8335V14.3335H10.3327L9.9327 14.6335L10.8327 15.8335ZM3.16602 4.16683C3.16602 4.53502 2.86754 4.8335 2.49935 4.8335V1.8335C1.21068 1.8335 0.166016 2.87816 0.166016 4.16683H3.16602ZM3.16602 15.0002V4.16683H0.166016V15.0002H3.16602ZM2.49935 14.3335C2.86754 14.3335 3.16602 14.632 3.16602 15.0002H0.166016C0.166016 16.2888 1.21068 17.3335 2.49935 17.3335V14.3335ZM5.83272 14.3335H2.49935V17.3335H5.83272V14.3335ZM7.33272 18.5835V15.8335H4.33272V18.5835H7.33272ZM5.73272 17.7835C6.39196 17.2891 7.33272 17.7594 7.33272 18.5835H4.33272C4.33272 20.2316 6.21425 21.1723 7.53272 20.1835L5.73272 17.7835ZM9.9327 14.6335L5.73272 17.7835L7.53272 20.1835L11.7327 17.0335L9.9327 14.6335ZM17.4993 14.3335H10.8327V17.3335H17.4993V14.3335ZM16.8327 15.0002C16.8327 14.632 17.1312 14.3335 17.4993 14.3335V17.3335C18.788 17.3335 19.8327 16.2888 19.8327 15.0002H16.8327ZM16.8327 4.16683V15.0002H19.8327V4.16683H16.8327ZM17.4994 4.8335C17.1312 4.8335 16.8327 4.53501 16.8327 4.16683H19.8327C19.8327 2.87817 18.788 1.8335 17.4994 1.8335V4.8335ZM2.49935 4.8335H17.4994V1.8335H2.49935V4.8335Z" fill="black" mask="url(#path-1-inside-1_124)"></path><path d="M11.0404 9.58366C11.0404 10.159 10.574 10.6253 9.9987 10.6253C9.4234 10.6253 8.95703 10.159 8.95703 9.58366C8.95703 9.00836 9.4234 8.54199 9.9987 8.54199C10.574 8.54199 11.0404 9.00836 11.0404 9.58366Z" fill="black"></path><path d="M7.29036 9.58366C7.29036 10.159 6.82399 10.6253 6.2487 10.6253C5.6734 10.6253 5.20703 10.159 5.20703 9.58366C5.20703 9.00836 5.6734 8.54199 6.2487 8.54199C6.82399 8.54199 7.29036 9.00836 7.29036 9.58366Z" fill="black"></path><path d="M14.7904 9.58366C14.7904 10.159 14.324 10.6253 13.7487 10.6253C13.1734 10.6253 12.707 10.159 12.707 9.58366C12.707 9.00836 13.1734 8.54199 13.7487 8.54199C14.324 8.54199 14.7904 9.00836 14.7904 9.58366Z" fill="black"></path></svg>